<!DOCTYPE svg PUBLIC "-//W3C//DTD SVG 1.1//EN" "http://www.w3.org/Graphics/SVG/1.1/DTD/svg11.dtd">
<!-- Uploaded to: SVG Repo, www.svgrepo.com, Transformed by: SVG Repo Mixer Tools -->
<svg width="800px" height="800px" viewBox="-2.4 -2.4 28.80 28.80" fill="none" xmlns="http://www.w3.org/2000/svg" stroke="#000000" stroke-width="1.224">
<g id="SVGRepo_bgCarrier" stroke-width="0">
<path transform="translate(-2.4, -2.4), scale(0.8999999999999999)" d="M16,25.45063249460038C17.969441074171304,25.24928185492572,19.343223996369236,27.80968723495086,21.318295414764414,27.94508707604705C23.430307020925543,28.089874769901623,25.958140776198757,27.81490569655302,27.36098643359003,26.229478132017356C28.767189065525045,24.640256679004324,28.0915146741855,22.116943564832265,28.33999371516586,20.009507009447667C28.55154424614908,18.215273900103455,29.104095616059933,16.428966494450783,28.7247922010227,14.662570446796867C28.356496622694728,12.947437315546011,26.837595532181975,11.742816742716775,26.212868657827997,10.103597531204716C25.463618458671196,8.137641893459637,26.316114090673114,5.375562475013067,24.6808884779027,4.0517820453882045C23.079447274987565,2.7553514445842575,20.5905389395314,3.5185521569402316,18.56867803366425,3.915319981267288C16.857594970791904,4.251101093671538,15.651618154832896,6.2429119098729835,13.909617745992206,6.16552470747548C11.353518869059645,6.051971725436369,9.341830632281788,2.8515165311909287,6.841456277669124,3.394346002739015C4.740826656685805,3.8503911805233115,3.652829436839815,6.459948667798171,3.049780835347798,8.523187479223392C2.4648472732134765,10.52444844644033,2.9057292065404514,12.704150333105247,3.5398224507901865,14.690382567415742C4.0810063244982775,16.385585701017778,5.909219771410889,17.40790985047228,6.429451366519704,19.10965975477267C6.962127783110473,20.852118401035426,5.90278434531867,22.809123305619156,6.5432222241032765,24.514920955443333C7.23461466627639,26.35643539741117,8.216978090864389,28.89072174097425,10.174447237603054,29.084405732662802C12.477137665227641,29.31224803321115,13.698064185278767,25.6859765497553,16,25.45063249460038" fill="#7ed0ec" strokewidth="0"/>
</g>
<g id="SVGRepo_tracerCarrier" stroke-linecap="round" stroke-linejoin="round"/>
<g id="SVGRepo_iconCarrier"> <path d="M12.207 16.278C11.1241 17.343 9.63879 18 8 18C4.68629 18 2 15.3137 2 12C2 8.68629 4.68629 6 8 6C9.67492 6 11.1896 6.6863 12.278 7.79303L13.6923 6.37878C12.2418 4.91014 10.2272 4 8 4C3.58172 4 0 7.58172 0 12C0 16.4183 3.58172 20 8 20C10.1911 20 12.1764 19.1192 13.6212 17.6923L12.207 16.278Z" fill="#000000"/> <path d="M15 9H13V11H11V13H13V15H15V13H17V11H15V9Z" fill="#000000"/> <path d="M20 9H22V11H24V13H22V15H20V13H18V11H20V9Z" fill="#000000"/> </g>
</svg>